<svg id="icono-datos_compartidos-ppal" data-name="icono-datos compartidos-ppal" xmlns="http://www.w3.org/2000/svg" xmlns:xlink="http://www.w3.org/1999/xlink" width="24" height="24" viewBox="0 0 24 24">
  <defs>
    <clipPath id="clip-path">
      <rect id="Rect치ngulo_13139" data-name="Rect치ngulo 13139" width="18.496" height="22" fill="#187385"/>
    </clipPath>
  </defs>
  <g id="Grupo_26412" data-name="Grupo 26412">
    <rect id="Rect치ngulo_13105" data-name="Rect치ngulo 13105" width="24" height="24" fill="none"/>
    <g id="Grupo_26485" data-name="Grupo 26485" transform="translate(3.028 0.687)">
      <g id="Grupo_26484" data-name="Grupo 26484" transform="translate(0 0)" clip-path="url(#clip-path)">
        <path id="Trazado_38700" data-name="Trazado 38700" d="M9.577,21.544H3.2A3.209,3.209,0,0,1,0,18.337V7.562A3.209,3.209,0,0,1,3.2,4.355H9.577a3.21,3.21,0,0,1,3.206,3.207V18.337a3.21,3.21,0,0,1-3.206,3.207M3.2,6.345A1.219,1.219,0,0,0,1.987,7.562V18.337A1.219,1.219,0,0,0,3.2,19.554H9.577a1.218,1.218,0,0,0,1.216-1.217V7.562A1.218,1.218,0,0,0,9.577,6.345Z" transform="translate(0 0.456)" fill="#187385"/>
        <path id="Trazado_38701" data-name="Trazado 38701" d="M7.851,17.489h-3.6a.995.995,0,0,1,0-1.99h3.6a.995.995,0,0,1,0,1.99" transform="translate(0.341 1.623)" fill="#187385"/>
        <path id="Trazado_38702" data-name="Trazado 38702" d="M13.481,6.541a.993.993,0,0,1-.993-.972,1.308,1.308,0,0,0-1.322-1.315.994.994,0,0,1,.1-1.986,3.3,3.3,0,0,1,3.21,3.256A.992.992,0,0,1,13.5,6.54h-.023" transform="translate(1.071 0.237)" fill="#187385"/>
        <path id="Trazado_38703" data-name="Trazado 38703" d="M16.324,6.095a.993.993,0,0,1-.991-.941A3.17,3.17,0,0,0,12.2,1.988.994.994,0,0,1,12.228,0h.02a5.12,5.12,0,0,1,5.069,5.045.992.992,0,0,1-.938,1.046l-.055,0" transform="translate(1.177 0)" fill="#187385"/>
      </g>
    </g>
  </g>
</svg>
