<svg id="icono-phone-call-ppal" xmlns="http://www.w3.org/2000/svg" width="24" height="24" viewBox="0 0 24 24">
  <path id="Trazado_28214" data-name="Trazado 28214" d="M713.916,415.007a2.241,2.241,0,0,1-.287-.012,20.915,20.915,0,0,1-9.081-3.227,20.625,20.625,0,0,1-6.3-6.3,20.9,20.9,0,0,1-3.221-9.1,3,3,0,0,1,2.7-3.272l.018,0c.083-.008.174-.012.266-.012h3.03A3.007,3.007,0,0,1,704,395.663a11.951,11.951,0,0,0,.646,2.6,3.008,3.008,0,0,1-.675,3.163l-.721.721a15,15,0,0,0,4.586,4.586l.716-.717a3.008,3.008,0,0,1,3.17-.679,11.9,11.9,0,0,0,2.588.645,3,3,0,0,1,2.59,3.031V412a3,3,0,0,1-2.987,3.009m-12.884-19.928h-3.02a1.019,1.019,0,0,0-1,1.04c0,.017,0,.033,0,.049a18.9,18.9,0,0,0,2.914,8.215,18.629,18.629,0,0,0,5.7,5.7,18.887,18.887,0,0,0,8.2,2.919,1.017,1.017,0,0,0,1.07-.961v-3.067a1,1,0,0,0-.86-1.015,13.791,13.791,0,0,1-3.019-.753,1.009,1.009,0,0,0-1.059.224L708.7,408.7a1,1,0,0,1-1.2.162,16.993,16.993,0,0,1-6.375-6.375,1,1,0,0,1,.162-1.2l1.269-1.27a1,1,0,0,0,.221-1.052,13.87,13.87,0,0,1-.755-3.03,1,1,0,0,0-.989-.851m11.87,6.95a1,1,0,0,1-.98-.809,3.987,3.987,0,0,0-3.161-3.16,1,1,0,1,1,.383-1.963,5.976,5.976,0,0,1,4.74,4.74,1,1,0,0,1-.79,1.173.954.954,0,0,1-.192.019m4-.01a1,1,0,0,1-.993-.889,7.958,7.958,0,0,0-7.067-7.057,1,1,0,1,1,.221-1.989,9.95,9.95,0,0,1,8.834,8.824,1,1,0,0,1-.883,1.1,1.051,1.051,0,0,1-.112.006" transform="translate(-694.457 -391.545)" fill="#187385"/>
  <rect id="Rectángulo_13193" data-name="Rectángulo 13193" width="24" height="24" fill="none"/>
</svg>
