<svg id="icono-file-text-ppal" xmlns="http://www.w3.org/2000/svg" width="24" height="24" viewBox="0 0 24 24">
  <g id="Grupo_26412" data-name="Grupo 26412">
    <rect id="Rectángulo_13105" data-name="Rectángulo 13105" width="24" height="24" fill="none"/>
    <g id="icono-settings-ppal" transform="translate(1 1)">
      <path id="Trazado_28270" data-name="Trazado 28270" d="M328.016,511.007a4,4,0,1,1,4-4,4,4,0,0,1-4,4m0-6a2,2,0,1,0,2,2,2,2,0,0,0-2-2" transform="translate(-317.016 -496.007)" fill="gray"/>
      <path id="Trazado_28271" data-name="Trazado 28271" d="M327.087,517.007a2.75,2.75,0,0,1-2.75-2.75.67.67,0,0,0-1.1-.51,2.785,2.785,0,0,1-3.938.051l0,0a2.75,2.75,0,0,1,0-3.889.649.649,0,0,0,.215-.479.6.6,0,0,0-.183-.425.608.608,0,0,0-.418-.172h-.144a2.75,2.75,0,0,1,0-5.5.668.668,0,0,0,.509-1.1,2.78,2.78,0,0,1-.853-1.994,2.75,2.75,0,0,1,4.7-1.945.617.617,0,0,0,.7.168.855.855,0,0,1,.183-.059.593.593,0,0,0,.261-.491v-.151a2.75,2.75,0,1,1,5.5,0,.628.628,0,0,0,.578.675l.03,0h.005a.61.61,0,0,0,.417-.171,2.787,2.787,0,0,1,3.936-.044,2.75,2.75,0,0,1,0,3.889.621.621,0,0,0-.167.706.967.967,0,0,1,.059.183.594.594,0,0,0,.49.261h.15a2.75,2.75,0,0,1,0,5.5.63.63,0,0,0-.624.361v.009a.591.591,0,0,0,.119.656,2.78,2.78,0,0,1,.853,1.994,2.75,2.75,0,0,1-4.7,1.945.625.625,0,0,0-.881-.053l-.024.022a.606.606,0,0,0-.171.417v.148a2.75,2.75,0,0,1-2.75,2.75m-3.422-5.262a2.541,2.541,0,0,1,2.5,2.407v.1a.917.917,0,0,0,1.833,0V514.1a2.441,2.441,0,0,1,4.14-1.742l.068.069a.918.918,0,0,0,1.3-1.3,2.442,2.442,0,0,1,1.672-4.2.94.94,0,0,0,1-.875c0-.015,0-.028,0-.042a.917.917,0,0,0-.917-.917h-.156a2.431,2.431,0,0,1-2.227-1.467.922.922,0,0,1-.067-.242,2.42,2.42,0,0,1,.556-2.5.918.918,0,0,0-1.235-1.359l-.066.065a2.431,2.431,0,0,1-1.677.688h-.021a2.444,2.444,0,0,1-2.445-2.423.942.942,0,0,0-.872-1.007l-.045,0a.917.917,0,0,0-.917.917v.156a2.43,2.43,0,0,1-1.472,2.227.921.921,0,0,1-.242.066,2.409,2.409,0,0,1-2.5-.556l-.064-.065a.918.918,0,1,0-1.3,1.3,2.451,2.451,0,0,1,.55,2.743,2.393,2.393,0,0,1-2.2,1.535h-.107a.917.917,0,0,0,0,1.833h.156a2.441,2.441,0,0,1,1.742,4.141l-.064.065a.916.916,0,0,0,0,1.3h0a.939.939,0,0,0,1.3,0,2.532,2.532,0,0,1,1.774-.754" transform="translate(-316.016 -495.007)" fill="gray"/>
    </g>
  </g>
</svg>
