<svg id="icono-roaming-ppal" xmlns="http://www.w3.org/2000/svg" xmlns:xlink="http://www.w3.org/1999/xlink" width="24" height="24" viewBox="0 0 24 24">
  <defs>
    <clipPath id="clip-path">
      <rect id="Rect치ngulo_13142" data-name="Rect치ngulo 13142" width="21.805" height="21.834" fill="#187385"/>
    </clipPath>
  </defs>
  <g id="Grupo_26412" data-name="Grupo 26412">
    <rect id="Rect치ngulo_13105" data-name="Rect치ngulo 13105" width="24" height="24" fill="none"/>
    <g id="Grupo_26491" data-name="Grupo 26491" transform="translate(1.097 1.083)">
      <g id="Grupo_26490" data-name="Grupo 26490" clip-path="url(#clip-path)">
        <path id="Trazado_38711" data-name="Trazado 38711" d="M8.646,17.307a.819.819,0,0,0-.29-.189.906.906,0,0,0-.69,0,.814.814,0,0,0-.291.189,1.049,1.049,0,0,0-.2.3.979.979,0,0,0-.059.341.883.883,0,0,0,.259.63.852.852,0,0,0,.291.2,1.038,1.038,0,0,0,.349.07.921.921,0,0,0,.9-.9.989.989,0,0,0-.071-.341.875.875,0,0,0-.2-.3" fill="#187385"/>
        <path id="Trazado_38712" data-name="Trazado 38712" d="M21.8,11.1c0-.063.01-.125.01-.188a6.707,6.707,0,0,0-5.777-6.63V2.9a2.9,2.9,0,0,0-2.9-2.9H2.9A2.905,2.905,0,0,0,0,2.9V18.932a2.906,2.906,0,0,0,2.9,2.9H13.126a2.9,2.9,0,0,0,2.9-2.9V17.546a6.7,6.7,0,0,0,5.761-6.315c0-.027.016-.051.016-.079s-.009-.03-.01-.047m-1.858-.853H18.416a11.489,11.489,0,0,0-.83-3.537,4.882,4.882,0,0,1,2.351,3.537m-9.667,0A4.892,4.892,0,0,1,12.308,6.9a11.423,11.423,0,0,0-.757,3.35Zm1.318,1.8a10.381,10.381,0,0,0,.747,2.9,4.906,4.906,0,0,1-1.986-2.9ZM15.1,15.817c-.112,0-.216-.025-.326-.033A9.066,9.066,0,0,1,13.4,12.053h3.165a9.042,9.042,0,0,1-1.392,3.757c-.024,0-.046.007-.07.007m-1.742-5.565a9.66,9.66,0,0,1,1.358-4.2c.129-.01.252-.039.384-.039.043,0,.083.012.126.013A9.627,9.627,0,0,1,16.6,10.252Zm.866,8.68a1.1,1.1,0,0,1-1.1,1.1H2.9a1.1,1.1,0,0,1-1.1-1.1V2.9A1.1,1.1,0,0,1,2.9,1.8H13.126a1.1,1.1,0,0,1,1.1,1.1V4.28A6.708,6.708,0,0,0,8.4,10.917c0,.063.008.125.01.188,0,.017-.01.03-.01.047s.014.052.016.079a6.7,6.7,0,0,0,5.81,6.323Zm3.325-3.8a10.432,10.432,0,0,0,.826-3.083h1.479a4.893,4.893,0,0,1-2.305,3.083" fill="#187385"/>
      </g>
    </g>
  </g>
</svg>
