<svg id="icono-transacciones-ppal" xmlns="http://www.w3.org/2000/svg" xmlns:xlink="http://www.w3.org/1999/xlink" width="24" height="24" viewBox="0 0 24 24">
  <defs>
    <clipPath id="clip-path">
      <rect id="Rect치ngulo_13141" data-name="Rect치ngulo 13141" width="21.078" height="22.842" transform="translate(0 0)" fill="gray"/>
    </clipPath>
  </defs>
  <g id="Grupo_26412" data-name="Grupo 26412">
    <rect id="Rect치ngulo_13105" data-name="Rect치ngulo 13105" width="24" height="24" fill="none"/>
    <g id="Grupo_26489" data-name="Grupo 26489" transform="translate(1.489 0.579)">
      <g id="Grupo_26488" data-name="Grupo 26488" clip-path="url(#clip-path)">
        <path id="Trazado_38708" data-name="Trazado 38708" d="M7.9,19.958a8.667,8.667,0,0,1-6-8.468A7.828,7.828,0,0,1,6.287,4.056l-.34.693A.949.949,0,0,0,6.382,6.02a.937.937,0,0,0,.417.1.948.948,0,0,0,.853-.532L9.177,2.476A.95.95,0,0,0,8.6,1.15L5.024.043a.949.949,0,1,0-.56,1.814l1.253.388A9.724,9.724,0,0,0,0,11.49a10.71,10.71,0,0,0,7.383,10.3.925.925,0,0,0,.259.036A.95.95,0,0,0,7.9,19.958" fill="gray"/>
        <path id="Trazado_38709" data-name="Trazado 38709" d="M21.078,11.352A10.713,10.713,0,0,0,13.693,1.058a.95.95,0,0,0-.52,1.827,8.668,8.668,0,0,1,6,8.467,7.828,7.828,0,0,1-4.386,7.433l.339-.69a.95.95,0,0,0-1.7-.838L11.9,20.367a.95.95,0,0,0,.573,1.326L16.053,22.8a.9.9,0,0,0,.28.043.95.95,0,0,0,.28-1.857L15.359,20.6a9.722,9.722,0,0,0,5.719-9.245" fill="gray"/>
        <path id="Trazado_38710" data-name="Trazado 38710" d="M13.734,13.758a2.718,2.718,0,0,0-.183-1.029,2.413,2.413,0,0,0-.528-.8,3.571,3.571,0,0,0-.818-.606,11.075,11.075,0,0,0-1.18-.544,2.508,2.508,0,0,1-.87-.491.744.744,0,0,1-.189-.542.8.8,0,0,1,.194-.579.744.744,0,0,1,.564-.2.713.713,0,0,1,.584.259,1.384,1.384,0,0,1,.233.891.25.25,0,0,0,.25.25h1.693a.25.25,0,0,0,.25-.25,3.1,3.1,0,0,0-.643-2.018,2.633,2.633,0,0,0-1.566-.917V6.129a.25.25,0,0,0-.25-.25h-.937a.25.25,0,0,0-.25.25V7.163a2.846,2.846,0,0,0-1.609.782,2.445,2.445,0,0,0-.706,1.8,2.683,2.683,0,0,0,.206,1.092,2.464,2.464,0,0,0,.574.806,3.792,3.792,0,0,0,.85.584,11.131,11.131,0,0,0,1.128.489,2.2,2.2,0,0,1,.81.461.828.828,0,0,1,.2.594.7.7,0,0,1-.217.55.915.915,0,0,1-.647.208.964.964,0,0,1-.765-.289,1.327,1.327,0,0,1-.268-.9.25.25,0,0,0-.25-.25H7.7a.25.25,0,0,0-.25.25,3,3,0,0,0,.724,2.093,2.976,2.976,0,0,0,1.8.9v.942a.251.251,0,0,0,.25.25h.932a.251.251,0,0,0,.25-.25v-.947a2.878,2.878,0,0,0,1.638-.775,2.438,2.438,0,0,0,.694-1.794" fill="gray"/>
      </g>
    </g>
  </g>
</svg>
