<svg id="Icono-voz_y_datos" data-name="Icono-voz y datos" xmlns="http://www.w3.org/2000/svg" xmlns:xlink="http://www.w3.org/1999/xlink" width="24" height="24" viewBox="0 0 24 24">
  <defs>
    <clipPath id="clip-path">
      <rect id="Rect치ngulo_13195" data-name="Rect치ngulo 13195" width="21.16" height="21.128" transform="translate(0 0)" fill="none"/>
    </clipPath>
  </defs>
  <rect id="Rect치ngulo_13194" data-name="Rect치ngulo 13194" width="24" height="24" fill="none"/>
  <g id="Grupo_26561" data-name="Grupo 26561" transform="translate(1.42 1.436)">
    <g id="Grupo_26560" data-name="Grupo 26560" clip-path="url(#clip-path)">
      <path id="Trazado_38719" data-name="Trazado 38719" d="M14.805,21.129a5.077,5.077,0,0,1-1.261-.162C3.026,18.568.984,10.508.313,7.859L.266,7.678c-.719-2.809.2-3.55.624-3.738a.671.671,0,0,1,.07-.027c2.4-.828,4.847-.389,5.687.246a1.16,1.16,0,0,1,.512,1.006c.01.176.231.956.377,1.471a18.252,18.252,0,0,1,.482,1.947A2.965,2.965,0,0,1,6.8,11.038a9.6,9.6,0,0,0,3.415,3.225,2.93,2.93,0,0,1,3.758-.893l.121.05c.207.082.524.171.867.269,1.308.377,2.127.647,2.486,1.211.472.739.5,1.781.129,4.127a2.344,2.344,0,0,1-1.043,1.657,3.188,3.188,0,0,1-1.723.445M1.82,5.527a4.207,4.207,0,0,0,.19,1.7l.047.188c.669,2.636,2.443,9.64,11.927,11.8a2.414,2.414,0,0,0,1.572-.052.545.545,0,0,0,.237-.427,7.724,7.724,0,0,0,.163-2.811,9.923,9.923,0,0,0-1.5-.511c-.412-.119-.789-.23-1.038-.329l-.142-.059c-.646-.268-1.156-.481-2.084.908a.9.9,0,0,1-1.17.3c-.463-.245-4.543-2.48-5.164-5.321a.9.9,0,0,1,.376-.939c.542-.369,1.013-.939,1-1.129-.059-.394-.258-1.1-.434-1.72-.209-.737-.348-1.242-.41-1.615a6.148,6.148,0,0,0-3.574.016" fill="#187385"/>
      <path id="Trazado_38720" data-name="Trazado 38720" d="M15.978,11.622a.9.9,0,0,1-.9-.9,4.421,4.421,0,0,0-4.494-4.708.9.9,0,0,1,.012-1.8H10.6a6.187,6.187,0,0,1,6.274,6.509.9.9,0,0,1-.9.9" fill="#187385"/>
      <path id="Trazado_38721" data-name="Trazado 38721" d="M20.259,11.622a.9.9,0,0,1-.9-.846c-.541-8.932-8.069-8.968-8.383-8.974h-.007A.9.9,0,0,1,10.957,0c.125-.009,9.557.011,10.2,10.666a.9.9,0,0,1-.843.953l-.056,0" fill="#187385"/>
      <path id="Trazado_38722" data-name="Trazado 38722" d="M10.969,11.146a1.215,1.215,0,1,1,1.215-1.215,1.215,1.215,0,0,1-1.215,1.215" fill="#007587"/>
    </g>
  </g>
</svg>
