<svg id="icono-package-ppal" xmlns="http://www.w3.org/2000/svg" width="20" height="22.081" viewBox="0 0 20 22.081">
  <path id="Trazado_28203" data-name="Trazado 28203" d="M380.765,397.985a.916.916,0,0,0-.456-.764,2.981,2.981,0,0,0-.793-.7l-7-4a3.009,3.009,0,0,0-3,0l-3.227,1.844a.972.972,0,0,0-.456.261l-3.317,1.895a2.983,2.983,0,0,0-.806.718.919.919,0,0,0-.454.772,2.97,2.97,0,0,0-.24,1.11v8a3.01,3.01,0,0,0,1.5,2.6l7,4a2.987,2.987,0,0,0,1.015.337.894.894,0,0,0,.97,0,2.965,2.965,0,0,0,1.015-.337l7-4a3.007,3.007,0,0,0,1.5-2.6v-8a2.966,2.966,0,0,0-.251-1.135m-10.244-3.725a1,1,0,0,1,.5-.134h-.005a1.006,1.006,0,0,1,.505.136l6.457,3.69-2.456,1.421-6.941-4Zm.495,7.719-6.959-4.026,2.512-1.435,6.954,4.01Zm-7.495,6.008a1,1,0,0,1-.5-.865v-7.459l6.995,4.047V411.7Zm15,0-6.505,3.717v-7.993l7.005-4.055v7.468a1,1,0,0,1-.5.863" transform="translate(-361.016 -392.12)" fill="#187385"/>
</svg>
