<svg id="Icono-tiempo_indefinido" data-name="Icono-tiempo indefinido" xmlns="http://www.w3.org/2000/svg" xmlns:xlink="http://www.w3.org/1999/xlink" width="24" height="24" viewBox="0 0 24 24">
  <defs>
    <clipPath id="clip-path">
      <rect id="Rect치ngulo_13218" data-name="Rect치ngulo 13218" width="21.826" height="20.187" transform="translate(0 0)" fill="none"/>
    </clipPath>
  </defs>
  <g id="Grupo_26607" data-name="Grupo 26607" transform="translate(1 1.999)">
    <g id="Grupo_26607-2" data-name="Grupo 26607" clip-path="url(#clip-path)">
      <path id="Trazado_38744" data-name="Trazado 38744" d="M10.869,18.348c-.256.024-.514.039-.774.039a8.293,8.293,0,1,1,8.292-8.274c0,.017-.007.112-.007.13a.867.867,0,0,0,.859.876.948.948,0,0,0,.942-.869c0-.022.007-.132.007-.156A10.094,10.094,0,1,0,10.1,20.188c.317,0,.629-.019.94-.047a.9.9,0,0,0,.813-.98.916.916,0,0,0-.979-.813" fill="#187385"/>
      <path id="Trazado_38745" data-name="Trazado 38745" d="M9.685,3.772a.9.9,0,0,0-.9.9v5.721a.9.9,0,0,0,.9.9H13.5a.9.9,0,1,0,0-1.8H10.585V4.672a.9.9,0,0,0-.9-.9" fill="#187385"/>
      <path id="Trazado_38746" data-name="Trazado 38746" d="M19.259,13.514a4.781,4.781,0,0,0-2.533,1.254,4.787,4.787,0,0,0-2.534-1.254,2.568,2.568,0,1,0,0,5.135A4.787,4.787,0,0,0,16.726,17.4a4.781,4.781,0,0,0,2.533,1.254,2.568,2.568,0,1,0,0-5.135m-5.067,3.334a.767.767,0,0,1-.006-1.534,3.841,3.841,0,0,1,1.3.767,3.853,3.853,0,0,1-1.29.767m5.073,0a3.838,3.838,0,0,1-1.3-.768,3.834,3.834,0,0,1,1.289-.766.767.767,0,0,1,.006,1.534" fill="#187385"/>
    </g>
  </g>
  <rect id="Rect치ngulo_13219" data-name="Rect치ngulo 13219" width="24" height="24" fill="none"/>
</svg>