<svg id="Group_3" data-name="Group 3" xmlns="http://www.w3.org/2000/svg" width="44.973" height="45.09" viewBox="0 0 44.973 45.09">
  <path id="Vector" d="M3.864,11.853a2.264,2.264,0,1,0-3.2,3.2l6.763,6.763A2.205,2.205,0,0,0,10.65,21.7L26.432,3.669A2.254,2.254,0,0,0,23.05.693L9.027,16.925Z" transform="translate(13.4 9.092)" fill="#33d09b"/>
  <path id="Vector-2" data-name="Vector" d="M42.718,20.29a2.254,2.254,0,0,0-2.254,2.254A18.058,18.058,0,1,1,22.428,4.509a19.817,19.817,0,0,1,4.284.5A2.254,2.254,0,1,0,27.771.631,23.762,23.762,0,0,0,22.428,0,22.545,22.545,0,1,0,44.973,22.545a2.254,2.254,0,0,0-2.254-2.254Z" transform="translate(0)" fill="#33d09b"/>
</svg>
